<svg width="525" height="170" viewBox="0 0 525 170" fill="none" xmlns="http://www.w3.org/2000/svg">
<path d="M50 113.25C51.6927 113.25 53.125 112.664 54.2969 111.492C55.599 110.32 56.25 108.823 56.25 107V63.25C56.25 61.5573 55.599 60.125 54.2969 58.9531C53.125 57.651 51.6927 57 50 57H25C23.1771 57 21.6797 57.651 20.5078 58.9531C19.3359 60.125 18.75 61.5573 18.75 63.25V107C18.75 108.823 19.3359 110.32 20.5078 111.492C21.6797 112.664 23.1771 113.25 25 113.25H50ZM25 132C23.1771 132 21.6797 131.414 20.5078 130.242C19.3359 129.07 18.75 127.573 18.75 125.75V119.5C18.75 117.807 18.099 116.375 16.7969 115.203C15.625 113.901 14.1927 113.25 12.5 113.25H6.25C4.42708 113.25 2.92969 112.664 1.75781 111.492C0.585938 110.32 0 108.823 0 107V63.25C0 61.5573 0.585938 60.125 1.75781 58.9531C2.92969 57.651 4.42708 57 6.25 57H12.5C14.1927 57 15.625 56.4141 16.7969 55.2422C18.099 54.0703 18.75 52.5729 18.75 50.75V44.5C18.75 42.8073 19.3359 41.375 20.5078 40.2031C21.6797 38.901 23.1771 38.25 25 38.25H50C51.6927 38.25 53.125 38.901 54.2969 40.2031C55.599 41.375 56.25 42.8073 56.25 44.5V50.75C56.25 52.5729 56.8359 54.0703 58.0078 55.2422C59.1797 56.4141 60.6771 57 62.5 57H68.75C70.4427 57 71.875 57.651 73.0469 58.9531C74.349 60.125 75 61.5573 75 63.25V107C75 108.823 74.349 110.32 73.0469 111.492C71.875 112.664 70.4427 113.25 68.75 113.25H62.5C60.6771 113.25 59.1797 113.901 58.0078 115.203C56.8359 116.375 56.25 117.807 56.25 119.5V125.75C56.25 127.573 55.599 129.07 54.2969 130.242C53.125 131.414 51.6927 132 50 132H25ZM89.5 132C87.6771 132 86.1797 131.414 85.0078 130.242C83.8359 129.07 83.25 127.573 83.25 125.75V44.5C83.25 42.8073 83.8359 41.375 85.0078 40.2031C86.1797 38.901 87.6771 38.25 89.5 38.25H133.25C134.943 38.25 136.375 38.901 137.547 40.2031C138.849 41.375 139.5 42.8073 139.5 44.5V50.75C139.5 52.5729 140.086 54.0703 141.258 55.2422C142.43 56.4141 143.927 57 145.75 57H152C153.693 57 155.125 56.4141 156.297 55.2422C157.599 54.0703 158.25 52.5729 158.25 50.75V44.5C158.25 42.8073 158.836 41.375 160.008 40.2031C161.18 38.901 162.677 38.25 164.5 38.25H189.5C191.193 38.25 192.625 38.901 193.797 40.2031C195.099 41.375 195.75 42.8073 195.75 44.5V50.75C195.75 52.5729 196.336 54.0703 197.508 55.2422C198.68 56.4141 200.177 57 202 57H208.25C209.943 57 211.375 57.651 212.547 58.9531C213.849 60.125 214.5 61.5573 214.5 63.25V125.75C214.5 127.573 213.849 129.07 212.547 130.242C211.375 131.414 209.943 132 208.25 132H202C200.177 132 198.68 131.414 197.508 130.242C196.336 129.07 195.75 127.573 195.75 125.75V63.25C195.75 61.5573 195.099 60.125 193.797 58.9531C192.625 57.651 191.193 57 189.5 57H164.5C162.677 57 161.18 57.651 160.008 58.9531C158.836 60.125 158.25 61.5573 158.25 63.25V125.75C158.25 127.573 157.599 129.07 156.297 130.242C155.125 131.414 153.693 132 152 132H145.75C143.927 132 142.43 131.414 141.258 130.242C140.086 129.07 139.5 127.573 139.5 125.75V63.25C139.5 61.5573 138.849 60.125 137.547 58.9531C136.375 57.651 134.943 57 133.25 57H108.25C106.427 57 104.93 57.651 103.758 58.9531C102.586 60.125 102 61.5573 102 63.25V125.75C102 127.573 101.349 129.07 100.047 130.242C98.875 131.414 97.4427 132 95.75 132H89.5ZM229 132C227.177 132 225.68 131.414 224.508 130.242C223.336 129.07 222.75 127.573 222.75 125.75V44.5C222.75 42.8073 223.336 41.375 224.508 40.2031C225.68 38.901 227.177 38.25 229 38.25H272.75C274.443 38.25 275.875 38.901 277.047 40.2031C278.349 41.375 279 42.8073 279 44.5V50.75C279 52.5729 279.586 54.0703 280.758 55.2422C281.93 56.4141 283.427 57 285.25 57H291.5C293.193 57 294.625 57.651 295.797 58.9531C297.099 60.125 297.75 61.5573 297.75 63.25V125.75C297.75 127.573 297.099 129.07 295.797 130.242C294.625 131.414 293.193 132 291.5 132H285.25C283.427 132 281.93 131.414 280.758 130.242C279.586 129.07 279 127.573 279 125.75V63.25C279 61.5573 278.349 60.125 277.047 58.9531C275.875 57.651 274.443 57 272.75 57H247.75C245.927 57 244.43 57.651 243.258 58.9531C242.086 60.125 241.5 61.5573 241.5 63.25V125.75C241.5 127.573 240.849 129.07 239.547 130.242C238.375 131.414 236.943 132 235.25 132H229ZM312.25 132C310.427 132 308.93 131.414 307.758 130.242C306.586 129.07 306 127.573 306 125.75V44.5C306 42.8073 306.586 41.375 307.758 40.2031C308.93 38.901 310.427 38.25 312.25 38.25H318.5C320.193 38.25 321.625 38.901 322.797 40.2031C324.099 41.375 324.75 42.8073 324.75 44.5V125.75C324.75 127.573 324.099 129.07 322.797 130.242C321.625 131.414 320.193 132 318.5 132H312.25ZM312.25 19.5C310.427 19.5 308.93 18.9141 307.758 17.7422C306.586 16.5703 306 15.0729 306 13.25V7C306 5.30729 306.586 3.875 307.758 2.70312C308.93 1.40104 310.427 0.75 312.25 0.75H318.5C320.193 0.75 321.625 1.40104 322.797 2.70312C324.099 3.875 324.75 5.30729 324.75 7V13.25C324.75 15.0729 324.099 16.5703 322.797 17.7422C321.625 18.9141 320.193 19.5 318.5 19.5H312.25ZM339.25 132C337.427 132 335.93 131.414 334.758 130.242C333.586 129.07 333 127.573 333 125.75V7C333 5.30729 333.586 3.875 334.758 2.70312C335.93 1.40104 337.427 0.75 339.25 0.75H345.5C347.193 0.75 348.625 1.40104 349.797 2.70312C351.099 3.875 351.75 5.30729 351.75 7V69.5C351.75 71.3229 352.336 72.8203 353.508 73.9922C354.68 75.1641 356.177 75.75 358 75.75H364.25C365.943 75.75 367.375 75.1641 368.547 73.9922C369.849 72.8203 370.5 71.3229 370.5 69.5V63.25C370.5 61.5573 371.086 60.125 372.258 58.9531C373.43 57.651 374.927 57 376.75 57H383C384.693 57 386.125 56.4141 387.297 55.2422C388.599 54.0703 389.25 52.5729 389.25 50.75V44.5C389.25 42.8073 389.836 41.375 391.008 40.2031C392.18 38.901 393.677 38.25 395.5 38.25H401.75C403.443 38.25 404.875 38.901 406.047 40.2031C407.349 41.375 408 42.8073 408 44.5V50.75C408 52.5729 407.349 54.0703 406.047 55.2422C404.875 56.4141 403.443 57 401.75 57H395.5C393.677 57 392.18 57.651 391.008 58.9531C389.836 60.125 389.25 61.5573 389.25 63.25V69.5C389.25 71.3229 388.599 72.8203 387.297 73.9922C386.125 75.1641 384.693 75.75 383 75.75H376.75C374.927 75.75 373.43 76.401 372.258 77.7031C371.086 78.875 370.5 80.3073 370.5 82V88.25C370.5 90.0729 371.086 91.5703 372.258 92.7422C373.43 93.9141 374.927 94.5 376.75 94.5H383C384.693 94.5 386.125 95.151 387.297 96.4531C388.599 97.625 389.25 99.0573 389.25 100.75V107C389.25 108.823 389.836 110.32 391.008 111.492C392.18 112.664 393.677 113.25 395.5 113.25H401.75C403.443 113.25 404.875 113.901 406.047 115.203C407.349 116.375 408 117.807 408 119.5V125.75C408 127.573 407.349 129.07 406.047 130.242C404.875 131.414 403.443 132 401.75 132H395.5C393.677 132 392.18 131.414 391.008 130.242C389.836 129.07 389.25 127.573 389.25 125.75V119.5C389.25 117.807 388.599 116.375 387.297 115.203C386.125 113.901 384.693 113.25 383 113.25H376.75C374.927 113.25 373.43 112.664 372.258 111.492C371.086 110.32 370.5 108.823 370.5 107V100.75C370.5 99.0573 369.849 97.625 368.547 96.4531C367.375 95.151 365.943 94.5 364.25 94.5H358C356.177 94.5 354.68 95.151 353.508 96.4531C352.336 97.625 351.75 99.0573 351.75 100.75V125.75C351.75 127.573 351.099 129.07 349.797 130.242C348.625 131.414 347.193 132 345.5 132H339.25ZM422.5 132C420.677 132 419.18 131.414 418.008 130.242C416.836 129.07 416.25 127.573 416.25 125.75V44.5C416.25 42.8073 416.836 41.375 418.008 40.2031C419.18 38.901 420.677 38.25 422.5 38.25H428.75C430.443 38.25 431.875 38.901 433.047 40.2031C434.349 41.375 435 42.8073 435 44.5V125.75C435 127.573 434.349 129.07 433.047 130.242C431.875 131.414 430.443 132 428.75 132H422.5ZM422.5 19.5C420.677 19.5 419.18 18.9141 418.008 17.7422C416.836 16.5703 416.25 15.0729 416.25 13.25V7C416.25 5.30729 416.836 3.875 418.008 2.70312C419.18 1.40104 420.677 0.75 422.5 0.75H428.75C430.443 0.75 431.875 1.40104 433.047 2.70312C434.349 3.875 435 5.30729 435 7V13.25C435 15.0729 434.349 16.5703 433.047 17.7422C431.875 18.9141 430.443 19.5 428.75 19.5H422.5ZM487 132C485.177 132 483.68 131.414 482.508 130.242C481.336 129.07 480.75 127.573 480.75 125.75V119.5C480.75 117.807 480.099 116.375 478.797 115.203C477.625 113.901 476.193 113.25 474.5 113.25H468.25C466.427 113.25 464.93 112.664 463.758 111.492C462.586 110.32 462 108.823 462 107V63.25C462 61.5573 461.349 60.125 460.047 58.9531C458.875 57.651 457.443 57 455.75 57H449.5C447.677 57 446.18 56.4141 445.008 55.2422C443.836 54.0703 443.25 52.5729 443.25 50.75V44.5C443.25 42.8073 443.836 41.375 445.008 40.2031C446.18 38.901 447.677 38.25 449.5 38.25H455.75C457.443 38.25 458.875 37.6641 460.047 36.4922C461.349 35.3203 462 33.8229 462 32V7C462 5.30729 462.586 3.875 463.758 2.70312C464.93 1.40104 466.427 0.75 468.25 0.75H474.5C476.193 0.75 477.625 1.40104 478.797 2.70312C480.099 3.875 480.75 5.30729 480.75 7V32C480.75 33.8229 481.336 35.3203 482.508 36.4922C483.68 37.6641 485.177 38.25 487 38.25H512C513.693 38.25 515.125 38.901 516.297 40.2031C517.599 41.375 518.25 42.8073 518.25 44.5V50.75C518.25 52.5729 517.599 54.0703 516.297 55.2422C515.125 56.4141 513.693 57 512 57H487C485.177 57 483.68 57.651 482.508 58.9531C481.336 60.125 480.75 61.5573 480.75 63.25V107C480.75 108.823 481.336 110.32 482.508 111.492C483.68 112.664 485.177 113.25 487 113.25H512C513.693 113.25 515.125 113.901 516.297 115.203C517.599 116.375 518.25 117.807 518.25 119.5V125.75C518.25 127.573 517.599 129.07 516.297 130.242C515.125 131.414 513.693 132 512 132H487Z" fill="black"/>
<rect x="27" y="73" width="21" height="25" rx="10.5" fill="black"/>
</svg>
